<?xml version="1.0" encoding="iso-8859-1"?>
<!-- Generator: Adobe Illustrator 19.0.0, SVG Export Plug-In . SVG Version: 6.00 Build 0)  -->
<svg version="1.1" id="Capa_1" xmlns="http://www.w3.org/2000/svg" xmlns:xlink="http://www.w3.org/1999/xlink" x="0px" y="0px"
	 viewBox="0 0 512 512" style="enable-background:new 0 0 512 512;" xml:space="preserve">
<circle style="fill:#333;" cx="256" cy="256" r="256"/>
<path style="fill:#282828;" d="M272.487,511.457C406.186,502.956,512,391.844,512,256c0-4.694-0.135-9.356-0.385-13.987
	L418.403,148.8L102.88,319.092l103.416,103.416l-9.889,12.869L272.487,511.457z"/>
<path style="fill:#98d8ca;" d="M199.581,95.869h112.84c73.21,0,132.559,59.349,132.558,132.559l0,0
	c0,52.312-30.307,97.54-74.316,119.102l0,0l-174.257,87.846l0.001-74.43c-71.744-1.685-129.386-60.369-129.386-132.519l0,0
	C67.022,155.218,126.371,95.869,199.581,95.869z"/>
<path style="fill:#88C2B5;" d="M312.421,95.869h-56.469v309.489l114.711-57.828l0,0c44.009-21.562,74.315-66.79,74.315-119.102l0,0
	C444.979,155.218,385.631,95.869,312.421,95.869z"/>
<circle style="fill:#282828;" cx="356.67" cy="220.2" r="32"/>
<circle style="fill:#333;" cx="256" cy="220.2" r="32"/>
<path style="fill:#282828;" d="M256,188.201c-0.016,0-0.032,0.001-0.048,0.001V252.2c0.016,0,0.032,0.001,0.048,0.001
	c17.673,0,32-14.327,32-32S273.673,188.201,256,188.201z"/>
<circle style="fill:#333;" cx="155.33" cy="220.2" r="32"/>
<g>
</g>
<g>
</g>
<g>
</g>
<g>
</g>
<g>
</g>
<g>
</g>
<g>
</g>
<g>
</g>
<g>
</g>
<g>
</g>
<g>
</g>
<g>
</g>
<g>
</g>
<g>
</g>
<g>
</g>
</svg>
