<?xml version="1.0" encoding="iso-8859-1"?>
<!-- Generator: Adobe Illustrator 19.0.0, SVG Export Plug-In . SVG Version: 6.00 Build 0)  -->
<svg version="1.1" id="Capa_1" xmlns="http://www.w3.org/2000/svg" xmlns:xlink="http://www.w3.org/1999/xlink" x="0px" y="0px"
	 viewBox="0 0 512 512" style="enable-background:new 0 0 512 512;" xml:space="preserve">
<circle style="fill:#333;" cx="256" cy="256" r="256"/>
<path style="fill:#282828;" d="M502.887,323.87L311.269,132.251L201.732,241.788c0,0,40.402,40.421,40.608,40.626L126.801,403
	l108.132,108.132C241.882,511.698,248.905,512,256,512C373.885,512,473.143,432.312,502.887,323.87z"/>
<g>
	<path style="fill:#98d8ca;" d="M256,109c-42.722,0-77.52,34.797-77.52,77.52c0,42.722,34.798,77.52,77.52,77.52
		s77.52-34.798,77.52-77.52C333.52,143.797,298.722,109,256,109z"/>
	<path style="fill:#98d8ca;" d="M383.821,337.883c-23.255-34.797-62.015-55.469-103.876-55.469h-47.89
		c-41.86,0-80.62,20.672-103.876,55.469l-1.378,2.24V403h258.398v-62.877L383.821,337.883z"/>
</g>
<g>
	<path style="fill:#88C2B5;" d="M256,264.039V109c42.722,0,77.52,34.797,77.52,77.52C333.52,229.241,298.722,264.039,256,264.039z"
		/>
	<path style="fill:#88C2B5;" d="M385.199,340.123V403H256V282.414h23.945c41.86,0,80.62,20.672,103.876,55.469L385.199,340.123z"/>
</g>
<g>
</g>
<g>
</g>
<g>
</g>
<g>
</g>
<g>
</g>
<g>
</g>
<g>
</g>
<g>
</g>
<g>
</g>
<g>
</g>
<g>
</g>
<g>
</g>
<g>
</g>
<g>
</g>
<g>
</g>
</svg>
